<svg xmlns="http://www.w3.org/2000/svg" width="18" height="20"><path d="M17.135 10.742a6.284 6.284 0 00-3.477-1.9 14.17 14.17 0 001.954-1 4.334 4.334 0 001.237-1.367 3.392 3.392 0 00.416-1.675 4.556 4.556 0 00-.273-1.588 3.986 3.986 0 00-.846-1.354 4.914 4.914 0 00-1.328-.99 8.423 8.423 0 00-1.25-.508 9.849 9.849 0 00-2.487-.347h-.964q-.26 0-.528-.007L9.31 0c-.043 0-.1 0-.183.006s-.139.007-.182.007l-.586.013L3.411.2.023.273l.052 1.081q1.094.143 1.484.169a1.99 1.99 0 01.9.2q.143.1.156.156a4.657 4.657 0 01.143 1.419q.052 1.927.117 5.26l.026 6.471a20.2 20.2 0 01-.117 2.526 1.83 1.83 0 01-.273.664 7.229 7.229 0 01-1.6.4q-.3.039-.885.156L0 20q3.112-.1 3.542-.143 2.786-.17 3.88-.143l2.565.052a12.242 12.242 0 002.578-.143 10.441 10.441 0 002.643-.781 6.138 6.138 0 001.823-1.406 4.322 4.322 0 00.925-1.524 6.494 6.494 0 00.378-2.1 4.573 4.573 0 00-1.199-3.07zm-10.2-9.231a10.641 10.641 0 011.693-.169 4.862 4.862 0 013.32.977 3.115 3.115 0 011.107 2.435 3.376 3.376 0 01-1.159 2.917 5.8 5.8 0 01-3.437.846 9.1 9.1 0 01-1.419-.091q-.013-.443-.013-1L7.04 6.15q.013-2.044-.078-3.633-.022-.433-.022-1.006zm6.51 15.039a3.339 3.339 0 01-1.588 1.471 6.474 6.474 0 01-2.813.534 4.732 4.732 0 01-1.823-.416 1.678 1.678 0 01-.156-.573l-.039-3.516.013-2.253V9.922a4.393 4.393 0 011.315-.13 9.231 9.231 0 013.216.417 3.793 3.793 0 011.836 1.641 4.421 4.421 0 01.534 2.344 4.924 4.924 0 01-.489 2.355z" fill="#fff"/></svg>