<svg width="15" height="17.5" xmlns="http://www.w3.org/2000/svg">
<path fill="none" d="M-1-1h17v19.5H-1z"/>
<path d="M10.789 4.273a.56.56 0 01-.587-.52V.196H5.266a.56.56 0 00-.587.52V3.12H6.29a.638.638 0 01.419.152l4.636 4.077a.494.494 0 01.173.368v6.444h2.733a.56.56 0 00.587-.52V4.273h-4.05zm4.049 0" fill="#818181"/>
<path d="M11.381.932v2.3H14L11.38.932zM14 3.232" fill="#818181"/>
<path d="M5.69 7.716V4.16H.748a.56.56 0 00-.587.52v12.103a.56.56 0 00.587.52h8.986a.56.56 0 00.587-.52V8.236h-4.04a.56.56 0 01-.593-.52zm0 0" fill="#818181"/>
<path d="M6.873 7.196H9.49l-2.617-2.3v2.3zm0-2.3" fill="#818181"/>
</svg>