<svg xmlns="http://www.w3.org/2000/svg" width="20" height="20"><path fill="#fff" d="M8.628 14.714l-1.84 1.84a2.363 2.363 0 11-3.341-3.341l3.694-3.694a2.36 2.36 0 013.341 0 1.013 1.013 0 001.448.015l1.158-1.155a5.126 5.126 0 00-7.909-.805l-3.68 3.68a5.1272 5.1272 0 107.251 7.251l3.31-3.31a6.491 6.491 0 01-3.432-.481zm0 0"/><path fill="#fff" d="M18.5 1.501a5.133 5.133 0 00-7.251 0l-3.31 3.31a6.488 6.488 0 013.432.477l1.84-1.84a2.363 2.363 0 013.341 3.341l-3.694 3.694a2.352 2.352 0 01-3.109.178 2.317 2.317 0 01-.218-.193 1.035 1.035 0 00-1.463 0L6.91 11.626a5.126 5.126 0 007.908.805l3.68-3.68a5.133 5.133 0 00.002-7.25zm0 0"/></svg>