<svg xmlns="http://www.w3.org/2000/svg" width="90.321" height="19.986" viewBox="0 0 90.321 19.986"><defs><style>.a{fill:#fff;}</style></defs><g transform="translate(-73.203 -732.208)"><path class="a" d="M86.9,732.209H79.488a6.285,6.285,0,0,0-6.285,6.285v13.7H86.9a6.285,6.285,0,0,0,6.285-6.285v-7.415A6.285,6.285,0,0,0,86.9,732.209Z" transform="translate(0 0)"/><path class="a" d="M194.67,732.209h-7.415a6.285,6.285,0,0,0-6.285,6.285v13.7h13.7a6.285,6.285,0,0,0,6.285-6.285v-7.415A6.285,6.285,0,0,0,194.67,732.209Zm4.327,13.7a4.332,4.332,0,0,1-4.327,4.327H182.928V738.494a4.332,4.332,0,0,1,4.327-4.327h7.415A4.332,4.332,0,0,1,199,738.494Z" transform="translate(-84.322 0)"/><path class="a" d="M302.437,732.209h-7.415a6.285,6.285,0,0,0-6.285,6.285v13.7h13.7a6.285,6.285,0,0,0,6.285-6.285v-7.415A6.285,6.285,0,0,0,302.437,732.209Z" transform="translate(-168.643 0)"/><path class="a" d="M410.205,732.209H402.79a6.285,6.285,0,0,0-6.285,6.285v13.7h13.7a6.285,6.285,0,0,0,6.285-6.285v-7.415A6.285,6.285,0,0,0,410.205,732.209Z" transform="translate(-252.966 0)"/><rect class="a" width="11.012" height="2.836" rx="1.418" transform="translate(101.17 736.668)"/><rect class="a" width="11.012" height="2.836" rx="1.418" transform="translate(101.17 740.906)"/><rect class="a" width="5.506" height="2.835" rx="1.418" transform="translate(101.17 745.145)"/></g></svg>