<svg xmlns="http://www.w3.org/2000/svg" width="12" height="16.002">
<path fill="#fff" d="M.632 15.334a.866.866 0 00.947.668h8.844a.866.866 0 00.947-.668l.632-9.818h-12zm7.369-7.379c0-.156.172-.283.385-.283h.615c.212 0 .385.127.385.283v5.609c0 .156-.172.283-.385.283h-.615c-.212 0-.385-.127-.385-.283zm-2.693 0c0-.156.172-.283.385-.283h.615c.212 0 .385.127.385.283v5.609c0 .156-.172.283-.385.283h-.615c-.212 0-.385-.127-.385-.283V7.955zm-2.693 0c0-.156.172-.283.385-.283h.615c.212 0 .385.127.385.283v5.609c0 .156-.172.283-.385.283H3c-.212 0-.385-.127-.385-.283zM11.492 1.162h-3.49V.238c0-.131-.076-.238-.17-.238H4.168c-.094 0-.17.106-.17.238v.924H.508c-.281 0-.508.319-.508.713v2.238h12V1.875c0-.394-.228-.713-.508-.713z"/></svg>