<svg xmlns="http://www.w3.org/2000/svg" width="19" height="20">
<path fill="#fff" d="M.598 1.233q1.522.039 1.834.505A8.891 8.891 0 012.645 4.5v4.323a17.572 17.572 0 00.2 3.075 5.713 5.713 0 001.036 2.53 5.25 5.25 0 002.233 1.583 9.366 9.366 0 003.543.6 10.625 10.625 0 003.182-.428 6.95 6.95 0 002.27-1.155 5.678 5.678 0 001.4-1.6 5.509 5.509 0 00.512-1.583 19.685 19.685 0 00.183-3.945q-.174-4.892-.275-5.138 0-.143-.019-.4t-.019-.35a.736.736 0 01.187-.532 3.58 3.58 0 01.986-.221 4.381 4.381 0 001.048-.169 3.327 3.327 0 00.05-.4 5.454 5.454 0 00-.075-.662L18.864 0a16.629 16.629 0 01-2.446.13L13.861 0h-1.048l-.025 1.116.175.039 1.248-.026a1.242 1.242 0 01.96.441 2.108 2.108 0 01.3 1.142l.05.766q.075 1.116.169 2.069t.137 1.589q.044.636.044 1.661a12.168 12.168 0 01-.262 2.971 5.809 5.809 0 01-.661 1.479 3.262 3.262 0 01-.811.831 3.984 3.984 0 01-1.235.661 7.466 7.466 0 01-2.383.363 4.505 4.505 0 01-2.208-.61 3.111 3.111 0 01-1.2-1.194 5.963 5.963 0 01-.636-2.621l-.177-3.631-.01-2.972q0-.078-.006-.331t-.006-.422a4.413 4.413 0 01.162-1.711 1.173 1.173 0 01.986-.324 10.025 10.025 0 001.547-.117v-.117L8.945.221l.013-.182q-.374.026-1.073.026L6.063.13q-1.023.039-2.1.039-.42 0-2.065-.091-.65-.051-1.4-.051-.337 0-.5.013l.039 1.141a4.327 4.327 0 00.561.052zM18.764 18.304H.395a.377.377 0 00-.287.119.426.426 0 00-.112.3v.848a.427.427 0 00.112.3.376.376 0 00.287.133h18.369a.376.376 0 00.287-.119.427.427 0 00.112-.3v-.848a.427.427 0 00-.112-.3.377.377 0 00-.287-.133z"/></svg>