<svg xmlns="http://www.w3.org/2000/svg" width="32" height="28"><path d="M.572 15.689a2.369 2.369 0 00.256 3.343l10.031 8.6a2.365 2.365 0 001.539.57c.07 0 .141 0 .211-.009a2.358 2.358 0 001.625-.856l17.16-20.882a2.374 2.374 0 00-.328-3.339L27.925.536a2.377 2.377 0 00-3.337.325L11.602 16.667l-5.043-4.32a2.375 2.375 0 00-3.343.256zm4.666-1.8l5.83 5a1.016 1.016 0 001.447-.126l13.644-16.6a.338.338 0 01.477-.047l3.141 2.58a.34.34 0 01.047.478L12.666 26.045a.336.336 0 01-.232.122.321.321 0 01-.251-.08l-10.032-8.6a.339.339 0 01-.035-.478l2.645-3.087a.341.341 0 01.477-.034z" fill="#818181"/></svg>