<svg xmlns="http://www.w3.org/2000/svg" width="35" height="35">
<path fill="#818181" d="M33.389 1.356a4.631 4.631 0 00-6.549 0l-1.25 1.25a1.718 1.718 0 10-2.43 2.43l.4.405-13.5 13.5-4.686 4.687a2.109 2.109 0 00-.616 1.4l-.011.25-.189 4.239a.7.7 0 00.7.732h.031l2.248-.1 1.37-.061.622-.027a2.766 2.766 0 001.829-.806l18.011-18.008.337.337a1.718 1.718 0 102.43-2.43l1.25-1.25a4.63 4.63 0 00.003-6.548zM20.383 16.998l-6.325 1.19L24.375 7.871l2.567 2.566zM4.822 31.689c-2.663 0-4.822.684-4.822 1.528s2.159 1.527 4.822 1.527 4.821-.684 4.821-1.527-2.158-1.528-4.821-1.528z"/></svg>