<svg xmlns="http://www.w3.org/2000/svg" width="27" height="27"><path d="M23.836 0H3.164A3.168 3.168 0 000 3.164v20.672A3.168 3.168 0 003.164 27h20.672A3.168 3.168 0 0027 23.836V3.164A3.168 3.168 0 0023.836 0zm1.055 23.836a1.056 1.056 0 01-1.055 1.055H3.164a1.056 1.056 0 01-1.055-1.055V12.867h22.782zM2.109 10.758V3.164a1.056 1.056 0 011.055-1.055h20.672a1.056 1.056 0 011.055 1.055v7.594zm19.168-6.547l1.49 1.489-3.51 3.5-3.545-3.5 1.482-1.5 2.055 2.028zm.819 13.4H4.9V15.5h17.2zm0 4.746H4.9V20.25h17.2zm0 0" fill="#818181"/></svg>