<svg xmlns="http://www.w3.org/2000/svg" width="26" height="26"><path d="M15.726 26.369v-1.551h.488a7.511 7.511 0 001.18-.089 2.339 2.339 0 00.957-.371 1.952 1.952 0 00.651-.8 3.327 3.327 0 00.243-1.39v-8.657H7.232v8.655a3.342 3.342 0 00.243 1.391 1.935 1.935 0 00.65.8 2.343 2.343 0 00.965.371 7.474 7.474 0 001.173.09h.488v1.551H0v-1.55h.47a7.426 7.426 0 001.181-.09 2.393 2.393 0 00.965-.371 1.882 1.882 0 00.651-.8 3.462 3.462 0 00.233-1.392V4.058a3 3 0 00-.243-1.307 1.892 1.892 0 00-.66-.767 2.376 2.376 0 00-.966-.347 7.809 7.809 0 00-1.162-.086H0V0h10.75v1.551h-.488a7.29 7.29 0 00-1.173.086 2.328 2.328 0 00-.965.37 1.948 1.948 0 00-.65.8 3.321 3.321 0 00-.243 1.389v7.466h12.012V4.203A3.339 3.339 0 0019 2.813a1.925 1.925 0 00-.65-.8 2.324 2.324 0 00-.957-.37 7.216 7.216 0 00-1.181-.091h-.488V0h10.75v1.551h-.468a7.223 7.223 0 00-1.181.091 2.4 2.4 0 00-.965.37 1.862 1.862 0 00-.65.8 3.419 3.419 0 00-.234 1.389v18.145a3 3 0 00.243 1.307 1.741 1.741 0 00.659.748 2.537 2.537 0 00.965.335 7.966 7.966 0 001.162.081h.47v1.551H15.726z" fill="#818181"/></svg>