<svg xmlns="http://www.w3.org/2000/svg" width="48" height="29">
<path fill="#818181" d="M43.913.001H4.327A4.336 4.336 0 000 4.325v19.97a4.336 4.336 0 004.323 4.323h39.59a4.336 4.336 0 004.323-4.323V4.325A4.336 4.336 0 0043.913.001zm2.522 24.294a2.525 2.525 0 01-2.522 2.522H4.327a2.525 2.525 0 01-2.522-2.522V4.325a2.525 2.525 0 012.522-2.523h39.59a2.525 2.525 0 012.518 2.523z"/><path fill="#818181" d="M4.658 15.954a.9.9 0 00-1.247 1.3l8.169 7.836a.9.9 0 101.247-1.3zM4.713 11.293a.901.901 0 00-1.248 1.3l13.02 12.5a.901.901 0 101.248-1.3zM4.67 21.009a.9.9 0 00-1.187 1.355l3.142 2.752a.9.9 0 101.187-1.355z"/></svg>