<svg xmlns="http://www.w3.org/2000/svg" width="24" height="19"><path fill="#818181" d="M22.847 15.233h-22a.814.814 0 00-.6.251.813.813 0 00-.251.595v1.692a.815.815 0 00.251.6.815.815 0 00.6.251h22a.858.858 0 00.846-.846v-1.692a.858.858 0 00-.846-.846zM22.847 10.155H5.923a.858.858 0 00-.846.846v1.692a.859.859 0 00.846.846h16.924a.859.859 0 00.846-.846v-1.692a.858.858 0 00-.846-.846zM22.845 5.078H2.538a.858.858 0 00-.846.846v1.693a.858.858 0 00.846.846h20.307a.858.858 0 00.846-.846V5.922a.858.858 0 00-.846-.846zM23.443.252a.814.814 0 00-.6-.251H7.616a.858.858 0 00-.846.846v1.692a.858.858 0 00.846.846h15.231a.858.858 0 00.846-.846V.847a.814.814 0 00-.25-.595z"/></svg>